HIERARCHY
ROOT Hips
{
   OFFSET 0.00000 0.00000 0.00000
   CHANNELS 6 Xposition Yposition Zposition Zrotation Xrotation Yrotation
   JOINT Spine
   {
      OFFSET 0.000000 9.512400 0.000000
      CHANNELS 3 Zrotation Xrotation Yrotation
      JOINT Spine1
      {
         OFFSET -0.000000 20.525920 0.102128
         CHANNELS 3 Zrotation Xrotation Yrotation
         JOINT HEad
         {
            OFFSET 0.000000 6.987328 0.009072
            CHANNELS 3 Zrotation Xrotation Yrotation
            End Site
            {
               OFFSET -0.232000 10.219360 2.011160
            }
         }
         JOINT LeftShoulder1
         {
            OFFSET 7.192000 -0.289800 -0.176000
            CHANNELS 3 Zrotation Xrotation Yrotation
            JOINT LeftArm
            {
               OFFSET 8.226160 -0.002704 0.257696
               CHANNELS 3 Zrotation Xrotation Yrotation
               JOINT LeftForeArm
               {
                  OFFSET 26.213519 0.079312 -1.139472
                  CHANNELS 3 Zrotation Xrotation Yrotation
                  JOINT LeftHand
                  {
                     OFFSET 22.051441 0.068288 0.817728
                     CHANNELS 3 Zrotation Xrotation Yrotation
                     End Site
                     {
                        OFFSET 13.395442 -0.480000 1.202328
                     }
                  }
               }
            }
         }
         JOINT RightShoulder
         {
            OFFSET -7.192000 -0.289800 -0.176000
            CHANNELS 3 Zrotation Xrotation Yrotation
            JOINT RightArm
            {
               OFFSET -8.226160 -0.002704 0.257696
               CHANNELS 3 Zrotation Xrotation Yrotation
               JOINT RightForeArm
               {
                  OFFSET -26.317679 0.079312 -1.139472
                  CHANNELS 3 Zrotation Xrotation Yrotation
                  JOINT RightHand
                  {
                     OFFSET -21.993682 0.068288 0.817728
                     CHANNELS 3 Zrotation Xrotation Yrotation
                     End Site
                     {
                        OFFSET -13.304962 -0.480000 1.202328
                     }
                  }
               }
            }
         }
      }
   }
   JOINT LeftUpLeg
   {
      OFFSET 7.156640 -6.933656 0.081320
      CHANNELS 3 Zrotation Xrotation Yrotation
      JOINT LeftLeg
      {
         OFFSET 0.000000 -35.538158 1.098160
         CHANNELS 3 Zrotation Xrotation Yrotation
         JOINT LeftFoot
         {
            OFFSET -0.202840 -33.673920 -1.168472
            CHANNELS 3 Zrotation Xrotation Yrotation
            JOINT LeftToes
            {
               OFFSET -0.032000 -3.532072 6.799280
               CHANNELS 3 Zrotation Xrotation Yrotation
               End Site
               {
                  OFFSET 0.064000 -0.037960 7.823832
               }
            }
         }
      }
   }
   JOINT RightUpLeg
   {
      OFFSET -7.156640 -6.933656 0.081320
      CHANNELS 3 Zrotation Xrotation Yrotation
      JOINT RightLeg
      {
         OFFSET 0.000000 -35.538158 1.098160
         CHANNELS 3 Zrotation Xrotation Yrotation
         JOINT RightFoot
         {
            OFFSET 0.202840 -33.673920 -1.168472
            CHANNELS 3 Zrotation Xrotation Yrotation
            JOINT RightToes
            {
               OFFSET 0.032000 -3.532072 6.799280
               CHANNELS 3 Zrotation Xrotation Yrotation
               End Site
               {
                  OFFSET -0.064000 -0.109960 7.823832
               }
            }
         }
      }
   }
}
MOTION
Frames: 16
Frame Time: 0.016670
29.691207 74.236173 -102.568625 0.219898 -14.657384 -59.283242 -29.394747 5.490419 -29.797499 -13.064406 5.486685 80.869856 3.614753 -18.784379 5.165182 11.257178 -80.564813 -19.893875 -167.974364 -92.299242 -103.276039 -6.092458 93.662090 -99.105635 2.928107 -35.556821 -20.213883 5.523055 30.821881 39.283283 2.778338 -29.673675 52.332899 -10.988503 -26.744097 105.223517 -51.494777 9.686458 -8.637576 19.055202 8.556361 -15.758136 -40.975172 8.660968 54.517522 1.040052 37.702111 5.827322 -42.205364 -19.442723 13.921936 -40.904012 11.703188 12.240156 2.596813 7.639620 33.311686 -7.412873 86.591827 21.111304 1.491409 8.401653 15.729975
29.601826 73.491901 -102.764681 0.078364 -14.835678 -58.047715 -29.088905 6.506014 -30.270934 -13.088452 6.152909 80.150549 3.867658 -18.938726 4.741598 11.123831 -80.447826 -20.302249 -168.484989 -92.645027 -102.833293 -5.934477 93.566393 -100.035675 3.189959 -35.555482 -20.450199 5.459013 30.598380 38.220297 2.643805 -29.243113 51.439084 -11.471098 -26.928115 105.665110 -51.354734 9.742970 -8.672577 19.650333 6.869109 -14.736022 -42.161074 11.918595 54.669831 1.316376 37.196319 5.743954 -42.776225 -20.089436 13.914989 -40.809708 11.533210 12.587847 2.590693 9.964966 32.883355 -4.891196 86.820345 20.907441 -1.277053 6.202811 16.485380
29.545137 72.751993 -102.979678 0.126507 -14.793998 -56.053628 -28.426020 7.479187 -31.336655 -13.182455 6.368135 78.813532 3.992499 -19.195733 4.344179 10.240104 -80.699266 -21.235939 -169.217513 -92.382892 -102.477761 -5.767498 93.237191 -100.755481 3.585638 -35.653652 -20.892560 5.859303 30.250597 38.171841 2.654968 -28.626501 51.424043 -11.911998 -27.584168 106.350820 -51.163926 9.758043 -8.625849 20.555294 4.670212 -13.201874 -43.554976 16.061482 54.503011 1.663407 36.268994 5.554134 -43.373754 -20.865663 13.816160 -40.214224 11.809769 13.272611 2.375399 12.089922 32.344607 -2.376982 87.039874 20.649675 -4.039394 3.576060 17.640702
29.529955 71.992363 -103.209847 0.377129 -14.613934 -53.209933 -27.734417 8.473118 -32.556561 -13.495173 6.573326 77.255423 3.975468 -19.530868 3.982622 9.203290 -80.999582 -22.159780 -169.485188 -92.008187 -102.484495 -5.565728 93.272216 -101.290455 3.845339 -35.717692 -21.371061 5.862258 30.181814 38.042965 2.478516 -27.799891 51.299655 -12.296650 -27.869135 106.546969 -50.741984 9.767470 -8.740386 21.805956 2.100085 -11.025472 -45.100624 20.588873 53.778406 1.909876 35.177855 5.040123 -44.032058 -21.614436 13.609049 -39.194282 12.542901 14.224055 2.188497 14.090124 31.545618 0.161232 87.247225 20.298882 -6.761086 0.590550 19.056742
29.514215 71.265925 -103.419159 0.593194 -14.285649 -49.945758 -27.132626 9.641421 -33.860376 -13.581686 6.878357 75.689076 3.842823 -19.937269 3.649466 8.357576 -80.993858 -22.859900 -168.953158 -92.059550 -102.851495 -5.442902 94.083356 -101.681450 4.275678 -35.857131 -21.652026 5.933877 30.090586 38.044946 2.311768 -26.988594 51.306803 -12.836712 -28.295553 106.645638 -50.408449 9.721097 -8.555537 23.243086 -0.793252 -8.180232 -46.433583 25.783143 52.496189 2.154479 34.047588 4.447293 -44.910195 -22.392956 13.432085 -37.907871 13.509869 15.289785 2.323037 15.906896 30.392443 2.738076 87.448353 19.840555 -9.370991 -2.594841 20.721452
29.492473 70.620908 -103.617438 0.289894 -13.943034 -47.210189 -26.160512 10.444654 -35.124091 -13.148210 7.220674 74.341869 3.463523 -20.217273 3.367870 7.942584 -81.355387 -22.953756 -167.813745 -92.230387 -103.906998 -5.359717 95.090788 -101.889887 4.762918 -36.010448 -21.676181 6.004877 30.079491 37.804800 2.223393 -26.259721 51.324371 -13.171665 -28.872671 106.909953 -50.116356 9.681573 -8.200503 24.086312 -3.963090 -5.119488 -46.572816 31.967328 50.538943 2.538469 33.120339 4.123310 -45.946119 -23.156687 13.616260 -36.511668 14.558468 16.427508 2.693013 17.494766 28.837496 5.270013 87.676878 19.165910 -11.887951 -5.906858 22.416158
29.482550 70.029472 -103.810004 0.467363 -13.909149 -44.327514 -24.751943 11.002941 -36.461578 -13.071145 7.328019 72.785788 3.123760 -20.416521 3.089386 7.006277 -81.795771 -23.344239 -167.427485 -91.231568 -104.269647 -5.423413 95.597766 -102.101431 5.108363 -36.116394 -21.598325 6.026506 30.069891 37.650769 2.020368 -25.564565 51.357784 -13.400793 -29.316504 107.152711 -49.734514 9.635868 -7.993575 24.134943 -6.714744 -1.419337 -45.236237 38.265015 46.583970 2.910882 32.355497 3.552365 -47.030384 -23.831041 13.649591 -35.418175 15.557463 17.622605 3.028021 18.946916 26.883304 7.701146 88.027512 18.161528 -14.222049 -9.213151 23.992465
29.461374 69.468163 -103.923224 0.534536 -12.921744 -41.334696 -24.439790 12.972467 -37.360438 -13.614265 7.688508 71.415720 2.776848 -20.289207 2.824654 5.899660 -81.247067 -23.366632 -166.825772 -89.911804 -103.713615 -5.197864 96.362611 -101.634902 5.650834 -36.193176 -21.442329 5.734432 29.487846 37.408598 1.807350 -25.462672 51.229376 -13.205995 -29.854262 105.920224 -49.449624 9.606577 -8.105425 23.302360 -9.848930 2.482247 -43.131654 47.074736 41.785526 3.246844 31.562584 2.764211 -48.127869 -24.493586 13.558508 -33.397832 16.178539 18.366969 3.759017 19.863823 24.683889 10.086589 88.487717 16.886391 -16.326167 -12.377326 25.412451
29.458122 69.003872 -104.040202 1.092390 -12.787355 -39.204552 -23.487076 13.637354 -37.903920 -13.912478 7.687374 70.418000 2.165370 -20.197588 2.625738 5.081440 -80.956313 -23.290627 -166.468594 -87.897028 -103.040329 -5.063194 96.850368 -100.970666 6.298699 -36.440938 -20.944934 5.464375 28.958745 37.188225 1.573204 -25.348017 51.241875 -13.138648 -30.228498 105.159443 -49.071446 9.627739 -7.996348 23.912409 -12.553636 4.178662 -43.784047 49.478765 41.691762 3.812354 30.921311 2.136802 -49.265437 -24.996635 13.539833 -32.763854 16.724874 18.841956 3.903245 20.738628 22.333557 12.377929 88.927472 15.245573 -18.159187 -15.525228 26.421241
29.464435 68.629784 -104.112738 1.334408 -12.369383 -37.508018 -22.999176 14.533388 -38.294596 -14.204715 7.913501 69.634947 1.393532 -19.974456 2.467276 4.458162 -80.396545 -23.273685 -166.063605 -86.381068 -102.448514 -5.102258 97.319827 -100.287879 6.775931 -36.630345 -20.172417 5.241466 28.271616 36.984877 1.397716 -25.377785 51.323759 -13.133267 -30.557385 104.616519 -48.638344 9.654046 -7.685438 24.223799 -14.978108 5.054241 -43.687191 51.315652 41.579740 4.401192 30.480477 1.475779 -50.409207 -25.444196 13.570177 -31.963878 16.941903 18.673237 4.007194 21.483180 20.279931 14.637947 89.480007 13.415697 -19.878685 -18.448129 27.126607
29.463088 68.398642 -104.146918 1.626410 -12.147860 -36.054724 -22.379683 14.911862 -38.583161 -14.396563 8.008128 68.955869 0.717891 -19.991069 2.306969 3.853452 -79.898214 -23.231464 -165.593825 -85.169549 -102.063571 -5.374937 97.690591 -99.875951 6.913746 -36.768609 -20.022216 4.910011 27.816239 36.826942 1.350438 -25.315893 51.295776 -13.014944 -30.692148 104.331727 -48.063536 9.701186 -7.720746 24.100451 -16.668071 5.614512 -43.236481 52.692003 41.320927 4.951513 30.148073 0.631334 -51.212594 -25.855527 13.611444 -31.378978 17.269293 17.752818 3.655951 22.106606 18.754052 16.794296 90.025179 11.349063 -21.431604 -21.034920 27.494387
29.488172 68.261837 -104.160021 1.907382 -11.922798 -34.921630 -21.934429 15.342123 -38.823232 -14.555265 8.141855 68.339075 0.077615 -20.143903 2.154727 3.286571 -79.393231 -23.264212 -165.164670 -84.365588 -101.781587 -5.746604 97.928261 -99.582252 6.786077 -36.856008 -20.437815 4.653655 27.526106 36.681709 1.323463 -25.133675 51.211420 -12.742589 -30.639040 104.309064 -47.589159 9.732323 -7.947458 23.673890 -17.989793 5.992705 -42.492038 53.863869 40.938282 5.455744 29.846352 -0.373542 -51.882168 -26.467658 13.595410 -30.929292 17.558379 15.965994 2.794756 22.552520 17.751474 18.891595 90.464503 9.113819 -23.022266 -23.405726 27.251207
29.573793 68.226508 -104.158133 2.137967 -12.148700 -34.086472 -21.283559 14.629681 -39.218980 -14.076304 7.922955 67.729208 -0.375076 -20.757327 1.986053 2.713718 -79.267371 -23.306583 -164.945407 -84.003814 -101.938729 -6.124582 97.672702 -99.279327 6.511435 -36.894196 -21.496376 4.522351 27.497290 36.609093 1.152709 -24.740479 51.213018 -12.558303 -30.330493 104.805469 -47.005932 9.743565 -8.234304 22.927951 -18.341537 6.183890 -41.528650 54.676289 40.394873 5.882544 29.664478 -1.588733 -52.313751 -27.204823 13.590574 -30.731166 18.236351 13.516764 1.215865 22.935299 17.053266 20.849742 90.748332 6.647643 -24.558042 -25.427589 26.460617
29.673841 68.300489 -104.099444 2.425458 -11.826532 -33.323643 -21.475911 14.715197 -39.469976 -13.866893 7.963829 67.199766 -0.861663 -21.178970 1.836021 2.480558 -78.656049 -23.518817 -164.455983 -83.848973 -101.943162 -6.585542 97.743586 -98.947817 6.023905 -36.802780 -22.128351 4.438743 27.264208 36.533719 1.001598 -24.642721 51.141058 -12.295188 -29.983250 105.086852 -46.531490 9.646957 -8.377198 22.136138 -18.583570 5.911433 -40.100041 54.890371 39.685052 6.347232 29.317600 -2.963376 -52.451861 -28.054112 13.883257 -30.099711 18.605471 10.418188 -0.762797 22.983564 16.338789 22.843795 90.783432 4.158458 -26.032667 -26.953065 25.199329
29.812190 68.436564 -104.045084 2.621303 -11.775664 -32.688862 -21.464290 14.129553 -39.356677 -14.101685 8.192175 66.911832 -1.447275 -21.276302 1.715984 2.248752 -78.175408 -23.591105 -164.315650 -83.273270 -101.742423 -7.084136 97.292732 -98.413115 5.716940 -36.907067 -22.211982 4.380011 27.203248 36.273984 0.684640 -24.427709 51.125431 -12.147220 -29.320834 105.868629 -46.148720 9.705764 -8.393655 20.750859 -18.242891 4.570162 -38.143577 54.635209 38.671380 6.785038 28.995051 -4.640629 -52.922174 -29.032569 13.850701 -29.461519 19.170775 7.173498 -3.230689 23.037562 15.289643 24.997666 90.531077 1.833452 -27.635102 -28.119861 23.404727
29.978077 68.624467 -103.980730 2.611971 -11.167625 -32.498682 -21.035120 13.461952 -38.986972 -14.241761 8.496573 66.874464 -1.842778 -21.205251 1.571619 2.202171 -77.583866 -23.530789 -164.126208 -82.601815 -101.362719 -7.350657 96.742929 -97.549732 5.398540 -36.976359 -21.806356 4.493490 27.003961 35.824971 0.456346 -24.464419 50.983199 -12.067637 -28.706804 105.973663 -46.175446 9.730768 -8.290378 18.619838 -17.176971 1.091612 -33.654774 53.032860 37.030902 8.394721 28.515579 -6.912051 -54.248436 -29.654813 11.606243 -28.532016 19.386695 4.072363 -4.554957 23.230913 12.542333 24.199210 90.006081 0.349512 -26.112011 -28.896495 21.278660
